<svg xmlns="http://www.w3.org/2000/svg" width="144" height="73.603" viewBox="0 0 144 73.603">
  <g id="logo" transform="translate(-228.676 -250.536)">
    <path id="Path_580" data-name="Path 580" d="M449.518,391.95a9.729,9.729,0,0,1,2.712.4,8.433,8.433,0,0,1,2.518,1.2,6.489,6.489,0,0,1,1.864,2.022,6.125,6.125,0,0,1,0,5.786,6.483,6.483,0,0,1-1.864,2.021,7.8,7.8,0,0,1-2.518,1.162,10.306,10.306,0,0,1-5.423,0,7.8,7.8,0,0,1-2.518-1.162,6.482,6.482,0,0,1-1.864-2.021,6.126,6.126,0,0,1,0-5.786,6.488,6.488,0,0,1,1.864-2.022,8.43,8.43,0,0,1,2.518-1.2A9.725,9.725,0,0,1,449.518,391.95Zm0,2.227a6.084,6.084,0,0,0-1.84.29,5.615,5.615,0,0,0-1.658.835,4.339,4.339,0,0,0-1.2,1.344,3.813,3.813,0,0,0,0,3.632,4.337,4.337,0,0,0,1.2,1.344,5.62,5.62,0,0,0,1.658.835,5.975,5.975,0,0,0,3.68,0,5.631,5.631,0,0,0,1.658-.835,4.345,4.345,0,0,0,1.2-1.344,3.814,3.814,0,0,0,0-3.632,4.348,4.348,0,0,0-1.2-1.344,5.626,5.626,0,0,0-1.658-.835A6.088,6.088,0,0,0,449.518,394.177Z" transform="translate(-165.737 -110.024)" fill="#4c5559"/>
    <path id="Path_581" data-name="Path 581" d="M536.553,403.087a.668.668,0,0,1-.133-.012.686.686,0,0,0-.133-.012,2.246,2.246,0,0,0-.69.29q-.545.291-1.38.654a12.211,12.211,0,0,1-1.9.629,9.152,9.152,0,0,1-2.227.266,10.962,10.962,0,0,1-2.93-.387,7.305,7.305,0,0,1-2.481-1.2,5.9,5.9,0,0,1-1.707-2.021,6.661,6.661,0,0,1,0-5.653,5.992,5.992,0,0,1,1.707-2.046,7.539,7.539,0,0,1,2.481-1.235,10.371,10.371,0,0,1,2.93-.411,11.888,11.888,0,0,1,2.239.194q1,.194,1.755.412a9.686,9.686,0,0,1,1.186.412,2.143,2.143,0,0,0,.533.194.246.246,0,0,0,.206-.121c.056-.081.1-.145.133-.194l.363.291-1.888,2.929-.242-.169a.92.92,0,0,0-.012-.145c-.008-.049-.02-.1-.036-.17q-.049-.266-.484-.545a5.007,5.007,0,0,0-1.077-.5,11.1,11.1,0,0,0-1.356-.363,6.642,6.642,0,0,0-1.319-.145,6.508,6.508,0,0,0-1.949.291,4.85,4.85,0,0,0-1.622.847,4.145,4.145,0,0,0-1.1,1.368,4.372,4.372,0,0,0,0,3.7,4.141,4.141,0,0,0,1.1,1.368,4.854,4.854,0,0,0,1.622.847,6.514,6.514,0,0,0,1.949.29,7.754,7.754,0,0,0,1.622-.182,9.727,9.727,0,0,0,1.549-.46,5.127,5.127,0,0,0,1.174-.63q.472-.351.472-.666a.454.454,0,0,0-.1-.291l.339-.194,1.6,2.566Z" transform="translate(-228.481 -110.024)" fill="#4c5559"/>
    <path id="Path_582" data-name="Path 582" d="M610.389,393.183a.445.445,0,0,0-.206-.4,1.394,1.394,0,0,0-.714-.133h-7.844v3h4.745a1.712,1.712,0,0,0,.75-.133q.266-.133.267-.69h.435v3.777h-.435q0-.556-.267-.714a1.486,1.486,0,0,0-.75-.157h-4.745v3.341h8.086a.974.974,0,0,0,.593-.17.541.541,0,0,0,.23-.46h.436v3.317h-.436q0-.363-.23-.412a2.962,2.962,0,0,0-.593-.048H598.429v-.436a.466.466,0,0,0,.3-.109.4.4,0,0,0,.133-.327V391.44a.4.4,0,0,0-.133-.327.466.466,0,0,0-.3-.109v-.436h11.04a1.211,1.211,0,0,0,.714-.158.506.506,0,0,0,.206-.423h.436v3.2Z" transform="translate(-287.679 -108.497)" fill="#4c5559"/>
    <path id="Path_583" data-name="Path 583" d="M664.95,404.9a.709.709,0,0,0,.5-.315,5.24,5.24,0,0,0,.351-.605l4.479-9.418q.169-.314.3-.581a1.068,1.068,0,0,0,.133-.46.358.358,0,0,0-.17-.339,1.442,1.442,0,0,0-.363-.145v-.436h4.091v.436a1.968,1.968,0,0,0-.339.133.353.353,0,0,0-.17.351.953.953,0,0,0,.085.387q.085.194.254.509l5.036,9.853a.824.824,0,0,0,.327.387,4.962,4.962,0,0,0,.472.242v.436h-4.261V404.9a.569.569,0,0,0,.242-.073.233.233,0,0,0,.145-.218,1.512,1.512,0,0,0-.194-.63l-.92-1.792h-5.907l-.872,1.719a2.034,2.034,0,0,0-.242.727q0,.267.46.266v.436H664.95Zm9.127-4.5-2.034-4.5-2.276,4.5Z" transform="translate(-339.434 -110.534)" fill="#4c5559"/>
    <path id="Path_584" data-name="Path 584" d="M741.953,404.9q.46,0,.46-.436V393.476q0-.436-.46-.436v-.436h4.14v.436q-.194,0-.194.242,0,.194.484.678l6.948,7.215v-7.7q0-.436-.629-.436v-.436h3.656v.436q-.46,0-.46.436v10.991q0,.436.46.436v.436h-3.922V404.9c.21,0,.315-.073.315-.218q0-.169-.387-.557l-7.384-7.7v8.038q0,.436.557.436v.436h-3.583Z" transform="translate(-399.345 -110.534)" fill="#4c5559"/>
    <path id="Path_585" data-name="Path 585" d="M819.421,400.835l.242.121a.762.762,0,0,0,.1.387,1.718,1.718,0,0,0,.666.569,6.762,6.762,0,0,0,1.138.5,9.841,9.841,0,0,0,1.344.351,6.8,6.8,0,0,0,1.259.133q.411,0,1.065-.061a6.31,6.31,0,0,0,1.283-.254,3.607,3.607,0,0,0,1.089-.533,1.06,1.06,0,0,0,.46-.9.9.9,0,0,0-.424-.823,3.108,3.108,0,0,0-1.114-.387,12.062,12.062,0,0,0-1.574-.157q-.884-.036-1.8-.109a16.351,16.351,0,0,1-1.8-.242,4.982,4.982,0,0,1-1.574-.569,3.126,3.126,0,0,1-1.114-1.089,3.408,3.408,0,0,1-.424-1.8,3.361,3.361,0,0,1,.351-1.477,3.586,3.586,0,0,1,1.077-1.283,5.939,5.939,0,0,1,1.84-.908,8.734,8.734,0,0,1,2.615-.351,11.221,11.221,0,0,1,2.227.194,16.518,16.518,0,0,1,1.634.412q.69.218,1.162.412a2.161,2.161,0,0,0,.787.194.667.667,0,0,0,.484-.145l.291.194-1.671,3.026-.242-.1a1.339,1.339,0,0,0-.194-.557,2.079,2.079,0,0,0-.641-.569,5.6,5.6,0,0,0-1.053-.5,8.594,8.594,0,0,0-1.307-.351,7.355,7.355,0,0,0-2.506-.049,5.216,5.216,0,0,0-1.029.254,2.274,2.274,0,0,0-.763.448.9.9,0,0,0-.3.69.986.986,0,0,0,.424.872,3.088,3.088,0,0,0,1.114.436,10.461,10.461,0,0,0,1.574.194q.883.049,1.8.121a14.71,14.71,0,0,1,1.8.254,5.215,5.215,0,0,1,1.574.581,3.168,3.168,0,0,1,1.114,1.077,3.3,3.3,0,0,1,.424,1.768,3.108,3.108,0,0,1-.666,2.058,4.7,4.7,0,0,1-1.658,1.259,7.473,7.473,0,0,1-2.143.617,15.887,15.887,0,0,1-2.143.157,14.233,14.233,0,0,1-2.312-.157,8.6,8.6,0,0,1-1.549-.387,10.263,10.263,0,0,1-.981-.412,1.452,1.452,0,0,0-.629-.182.4.4,0,0,0-.315.194l-.339-.194Z" transform="translate(-458.582 -110.024)" fill="#4c5559"/>
    <g id="Group_95" data-name="Group 95" transform="translate(275.581 268.129)">
      <path id="Path_586" data-name="Path 586" d="M452.829,330.17q-.722.045-1.455.124l-.131.013q-1.028.106-2.066.25-1.393.189-2.785.438-1,.171-2.006.38t-2,.478q-.485.135-.964.291l-.2.069a3.031,3.031,0,0,0-.652.291,1.133,1.133,0,0,0-.173.118.813.813,0,0,1-.065.051.069.069,0,0,0-.026.058.094.094,0,0,0,.017.057.871.871,0,0,0,.293.143l.039.01.165.052q.132.042.264.089a.167.167,0,0,1,.117.151.08.08,0,0,1,0,.041.083.083,0,0,1-.021.042.274.274,0,0,1-.041.022.1.1,0,0,1-.041.012,2.571,2.571,0,0,1-.793-.238.563.563,0,0,1-.32-.482.31.31,0,0,1,.089-.248,1.176,1.176,0,0,1,.264-.224,6.075,6.075,0,0,1,.559-.278,4.882,4.882,0,0,1,.544-.207q.278-.087.556-.168h.011q.9-.262,1.8-.453,1.217-.262,2.429-.475t2.425-.36q.765-.09,1.53-.163.465-.041.935-.093.279-.027.558-.037c.08-.005.16-.008.241-.01q.219-.015.438-.024.782-.046,1.565-.087a2.478,2.478,0,0,1,.438.009.212.212,0,0,1,.195.183.092.092,0,0,1-.013.042.42.42,0,0,1-.029.047.045.045,0,0,1-.032.023,2.571,2.571,0,0,0-.558,0,3.451,3.451,0,0,1-.482.019Zm-12.352,10.78h-.028a.2.2,0,0,1-.076-.125.188.188,0,0,1,.028-.143c.022-.037.045-.074.069-.111a.016.016,0,0,0,.005-.011q.811-1.235,1.644-2.46t1.7-2.423q.743-1.01,1.509-2.009.113-.144.219-.288.359-.471.723-.933l.3-.378q.086-.116.182-.228a.16.16,0,0,1,.138-.071.128.128,0,0,1,.108.077.353.353,0,0,1-.022.3,1.957,1.957,0,0,1-.16.238l-.219.294q-.418.555-.84,1.11-1,1.293-1.978,2.6t-1.922,2.64q-.369.526-.726,1.059l-.428.621c-.046.063-.1.126-.15.189a.156.156,0,0,1-.027.039l-.011.008a.039.039,0,0,1-.016,0h-.027Z" transform="translate(-439.985 -329.795)" fill="#4c5559"/>
      <path id="Path_587" data-name="Path 587" d="M466.6,340.015a.514.514,0,0,1,.193.224.348.348,0,0,1,0,.279,1.949,1.949,0,0,1-.293.487,5.827,5.827,0,0,1-.678.7c-.054.045-.111.1-.172.151q-.426.369-1.042.889t-1.239,1.008a10.39,10.39,0,0,1-1.074.752q-.123.156-.185.239l-.1.131-.072.1c-.021.03-.053.072-.1.128s-.1.137-.182.244a.032.032,0,0,0,0,.022.115.115,0,0,1,0,.028.187.187,0,0,0,.012.027h.011a.031.031,0,0,0,.022-.006l.254-.2.206-.157q.21-.162.43-.309t.452-.271a2.066,2.066,0,0,1,.408-.16.438.438,0,0,1,.279.009.512.512,0,0,1,.205.142.351.351,0,0,1,.1.237.609.609,0,0,1-.045.231,1.757,1.757,0,0,1-.082.174.075.075,0,0,1-.011.017q-.107.2-.223.392-.075.133-.143.26a.172.172,0,0,0-.015.077s0,.007.008.011l.016.008.014,0a.022.022,0,0,1,.016-.006q.092-.035.185-.074.347-.181.841-.431.543-.272.917-.465a.7.7,0,0,1,.286-.1q.052.013-.023.107a1.425,1.425,0,0,1-.232.218q-.438.32-1.075.7t-.908.533a2.681,2.681,0,0,1-.358.165.257.257,0,0,1-.331-.137.317.317,0,0,1-.006-.34q.09-.15.186-.3.059-.083.112-.172.1-.134.182-.272c.064-.1.132-.2.2-.3a2.939,2.939,0,0,0,.179-.269q.061-.108,0-.115a.882.882,0,0,0-.323.14l-.239.136-.044.023a6.432,6.432,0,0,0-.936.657,15.439,15.439,0,0,0-1.864,1.757q-.145.167-.3.323l-.032.034a.109.109,0,0,1-.1.029.149.149,0,0,1-.094-.064.564.564,0,0,1-.068-.108.211.211,0,0,1,0-.175c.021-.037.045-.074.069-.111q.359-.5.711-1,.7-1.026,1.454-2.014c.057-.07.113-.142.166-.216q.493-.633.994-1.263t1.033-1.237a8.058,8.058,0,0,1,.907-.905,4.009,4.009,0,0,1,1.092-.652c.025-.008.048-.014.068-.018a.314.314,0,0,1,.052-.006h.016A.463.463,0,0,1,466.6,340.015Zm-3.316,3.267q.151-.12.411-.322.4-.314.875-.691t.821-.658a5.565,5.565,0,0,0,.733-.7q.156-.184.3-.383l.04-.064a.861.861,0,0,0,.053-.1.159.159,0,0,0,.018-.088c0-.024-.024-.035-.061-.034a1.513,1.513,0,0,0-.682.319,6.9,6.9,0,0,0-.8.687q-.4.4-.737.785t-.51.611q-.043.05-.161.178t-.233.27q-.121.142-.19.233t-.026.08S463.184,343.363,463.285,343.282Z" transform="translate(-455.339 -337.688)" fill="#4c5559"/>
      <path id="Path_588" data-name="Path 588" d="M486.881,358.579a.563.563,0,0,1,.172.112.338.338,0,0,1,.124.222v.016q0,.247-.583.481a2.03,2.03,0,0,1-.376.111,2.573,2.573,0,0,1-.262.026.53.53,0,0,1-.269-.056h-.016a.368.368,0,0,0-.1.073,1.933,1.933,0,0,0-.172.156,1.208,1.208,0,0,0-.23.343.368.368,0,0,0-.031.1v.022a.145.145,0,0,0,.123.14,1.08,1.08,0,0,0,.2.013h.055a8.683,8.683,0,0,0,1.937-.428q1.09-.309,2.263-.56a11.147,11.147,0,0,1,1.945-.264q.887-.015,1.09.315a.376.376,0,0,1,.058.191v.038c0,.08-.009.124-.02.132a4.291,4.291,0,0,0-1.218-.132,16.954,16.954,0,0,0-3.4.541q-1.369.325-2.029.457a2.79,2.79,0,0,1-.492.063h-.016a.748.748,0,0,1-.506-.139.613.613,0,0,1-.156-.15.72.72,0,0,1-.121-.381v-.049a.834.834,0,0,1,.254-.535,3.627,3.627,0,0,1,.415-.38,2.472,2.472,0,0,1,.471-.287,1.929,1.929,0,0,1,.763-.216A.411.411,0,0,1,486.881,358.579Zm-.9.695a2.007,2.007,0,0,0,.529-.141.877.877,0,0,0,.271-.153c.036-.037.054-.065.053-.083a.068.068,0,0,0-.039-.01,2.189,2.189,0,0,0-.61.208c-.163.079-.244.134-.243.163C485.945,359.265,485.958,359.271,485.984,359.274Z" transform="translate(-474.884 -352.17)" fill="#4c5559"/>
      <path id="Path_589" data-name="Path 589" d="M540.006,331.534a8.91,8.91,0,0,0-1.022.273,10.078,10.078,0,0,0-3.455,1.911,4.551,4.551,0,0,0-.731.768,2.348,2.348,0,0,0-.418.818,1.351,1.351,0,0,0-.034.589,1.6,1.6,0,0,0,.207.552,1.755,1.755,0,0,0,.353.448l.022.022q.295.279.612.531.427.316.871.615l.105.069q.128.091.26.176.31.214.616.43t.594.453a3.926,3.926,0,0,1,.552.571,2.065,2.065,0,0,1,.318.624.787.787,0,0,1-.308.9,1.664,1.664,0,0,1-.44.2,3.1,3.1,0,0,1-.913.131h-.065q-.247.01-.5,0a2.268,2.268,0,0,1-.492-.079,2.315,2.315,0,0,1-.375-.136.966.966,0,0,1-.533-.719.589.589,0,0,1,.02-.26.9.9,0,0,1,.119-.24,1.5,1.5,0,0,1,.762-.572,1.683,1.683,0,0,1,.936-.044,1.822,1.822,0,0,1,.808.473.334.334,0,0,1,.068.108.123.123,0,0,0,.017.044s0,.008,0,.014a.032.032,0,0,1,0,.014.038.038,0,0,1-.008.011.015.015,0,0,0-.011.006l-.036.014a.035.035,0,0,1-.03,0,.965.965,0,0,1-.095-.081l-.072-.059a1.391,1.391,0,0,0-.813-.282,1.447,1.447,0,0,0-.841.256,1.318,1.318,0,0,0-.467.523.669.669,0,0,0-.051.209.221.221,0,0,0,.113.222,1.193,1.193,0,0,0,.37.142,3.3,3.3,0,0,0,.7.075,4.51,4.51,0,0,0,.7-.056,2.492,2.492,0,0,0,.556-.141,1.441,1.441,0,0,0,.374-.226.663.663,0,0,0,.2-.365.618.618,0,0,0-.065-.4,1.245,1.245,0,0,0-.263-.351l-.095-.081a6.526,6.526,0,0,0-.511-.435q-.393-.278-.8-.556l-.543-.374q-.471-.331-.926-.679a6.091,6.091,0,0,1-.556-.505,2.788,2.788,0,0,1-.613-.909,1.852,1.852,0,0,1,.133-1.777,4.5,4.5,0,0,1,.864-1,10.164,10.164,0,0,1,4.07-2.136,8.752,8.752,0,0,1,.952-.192,5.755,5.755,0,0,1,.971-.055,3.868,3.868,0,0,1,1,.158,2.027,2.027,0,0,1,.73.4,1.622,1.622,0,0,1,.594,1.408,2.237,2.237,0,0,1-.11.588,3.765,3.765,0,0,1-.232.546,6.219,6.219,0,0,1-.667.986,12.622,12.622,0,0,1-1.215,1.281,2.129,2.129,0,0,1-.427.314.1.1,0,0,1-.077,0,.15.15,0,0,1-.077-.056.289.289,0,0,1-.06-.108.107.107,0,0,1,.007-.088.09.09,0,0,0,.016-.022.252.252,0,0,1,.037-.05l.13-.112.1-.1a12.708,12.708,0,0,0,1.382-1.486,5.7,5.7,0,0,0,.4-.557,4.221,4.221,0,0,0,.312-.605,2.666,2.666,0,0,0,.193-.858.975.975,0,0,0-.134-.6,1.141,1.141,0,0,0-.459-.395,2.3,2.3,0,0,0-.848-.237q-.241-.018-.488-.019l-.219-.007A6.125,6.125,0,0,0,540.006,331.534Z" transform="translate(-513.143 -330.749)" fill="#4c5559"/>
      <path id="Path_590" data-name="Path 590" d="M565.319,359.393a.55.55,0,0,1-.207-.254.523.523,0,0,1-.033-.322,1.431,1.431,0,0,1,.052-.182c.014-.04.026-.079.036-.115a.031.031,0,0,0-.006-.014l-.011-.013-.019-.011a.01.01,0,0,0-.014,0,.046.046,0,0,0-.022.006l-.228.1a4.926,4.926,0,0,1-.679.3,1.309,1.309,0,0,1-.459.068.447.447,0,0,1-.309-.121.565.565,0,0,1-.169-.287.51.51,0,0,1,.027-.329,1.159,1.159,0,0,1,.171-.26,2.961,2.961,0,0,1,.723-.62,2.711,2.711,0,0,1,.887-.339.98.98,0,0,1,.364-.015.75.75,0,0,1,.329.134.247.247,0,0,1,.109.124.189.189,0,0,1,0,.115.1.1,0,0,1-.037.061,1.071,1.071,0,0,1-.2-.013,1.138,1.138,0,0,0-.216-.01,1.444,1.444,0,0,0-.325.063,4.573,4.573,0,0,0-.609.235,2.524,2.524,0,0,0-.555.352,1.665,1.665,0,0,0-.4.5.046.046,0,0,0,.018.063.221.221,0,0,0,.091.023.541.541,0,0,0,.11,0,.593.593,0,0,0,.073-.012,3.537,3.537,0,0,0,.474-.172,7.66,7.66,0,0,0,.976-.534,5.908,5.908,0,0,0,.875-.692q.07-.067.146-.129a.107.107,0,0,1,.068-.023.113.113,0,0,1,.074.026.37.37,0,0,1,.14.178.135.135,0,0,1-.008.148q-.059.067-.118.122a.623.623,0,0,0-.043.05,5.8,5.8,0,0,0-.793,1.016.022.022,0,0,0-.005.017,1.5,1.5,0,0,0-.107.174.7.7,0,0,0-.068.2.067.067,0,0,0,.023.049.06.06,0,0,0,.055.015,5.685,5.685,0,0,0,1.077-.4,4.379,4.379,0,0,0,.715-.445,3.763,3.763,0,0,0,.388-.343.191.191,0,0,1,.071-.015.434.434,0,0,1,.1,0,.1.1,0,0,1,.066.029c.038.061.005.147-.1.256a2.967,2.967,0,0,1-.429.363q-.276.2-.58.385t-.55.319a3.464,3.464,0,0,1-.339.168.017.017,0,0,1-.011.006q-.088.029-.18.055a.585.585,0,0,1-.186.022A.373.373,0,0,1,565.319,359.393Z" transform="translate(-535.877 -350.945)" fill="#4c5559"/>
      <path id="Path_591" data-name="Path 591" d="M580.273,346.918a.651.651,0,0,1-.1-.332,1.244,1.244,0,0,1,.069-.434,3.878,3.878,0,0,1,.321-.723q.122-.21.25-.415l.1-.155.064-.1a.716.716,0,0,0,.143-.282.1.1,0,0,1,.029-.058.646.646,0,0,1,.051-.047,1.181,1.181,0,0,0,.247-.273l.064-.089q.5-.655,1.046-1.259a16.068,16.068,0,0,1,1.157-1.151,8.193,8.193,0,0,1,1.157-.88,2.381,2.381,0,0,1,.478-.228.25.25,0,0,1,.28.072.357.357,0,0,1,.058.481,4.349,4.349,0,0,1-.5.617,14.825,14.825,0,0,1-1.979,1.754q-.724.538-1.466,1.06a.993.993,0,0,0-.247.245,11.5,11.5,0,0,0-.714,1.113,3.4,3.4,0,0,0-.294.739.446.446,0,0,0-.008.17.05.05,0,0,0,.02.038.115.115,0,0,0,.036.021h.027a.428.428,0,0,0,.191-.014,4.669,4.669,0,0,0,.522-.228,10.437,10.437,0,0,0,1.187-.7q.541-.374,1.092-.827a.358.358,0,0,1,.215-.105.084.084,0,0,1,.086.067.111.111,0,0,1-.031.1,1.077,1.077,0,0,1-.132.15q-.1.1-.21.206l-.17.162a.072.072,0,0,1-.016.011,8.567,8.567,0,0,1-1.872,1.314,1.969,1.969,0,0,1-.218.091q-.076.029-.147.063a.9.9,0,0,1-.366.067A.445.445,0,0,1,580.273,346.918Zm2.52-3.708a.06.06,0,0,0,.033-.012,13.116,13.116,0,0,0,2.162-1.916.263.263,0,0,0,.043-.077.028.028,0,0,0-.006-.014.042.042,0,0,0-.017-.014.075.075,0,0,0-.017-.011.043.043,0,0,0-.016-.005c-.029.015-.056.03-.081.045a2.195,2.195,0,0,0-.217.135,12.762,12.762,0,0,0-1.891,1.769.266.266,0,0,0-.027.044.226.226,0,0,1-.01.028q-.037.066.033.027Z" transform="translate(-549.056 -338.106)" fill="#4c5559"/>
      <path id="Path_592" data-name="Path 592" d="M597.468,357.89a1.323,1.323,0,0,1-.389.308,2.62,2.62,0,0,1-.593.227q-.346.091-.638.137t-.429.06a.344.344,0,0,0-.228.113,3.581,3.581,0,0,1-.821.661,2.007,2.007,0,0,1-.527.217.494.494,0,0,1-.518-.166.721.721,0,0,1-.15-.742,1.973,1.973,0,0,1,.19-.4,3.168,3.168,0,0,1,.931-.925,1.33,1.33,0,0,1,.277-.136.236.236,0,0,1,.161-.011.222.222,0,0,1,.131.132.048.048,0,0,0,.006.016.05.05,0,0,0,.006.022q.051.109.133.074a.642.642,0,0,0,.076-.029l.087-.034a.368.368,0,0,1,.263,0,.385.385,0,0,1,.181.156.444.444,0,0,1,.067.226c-.006.073-.016.148-.029.225a.516.516,0,0,0-.015.082.087.087,0,0,0,.012.06.064.064,0,0,0,.044.032,3.492,3.492,0,0,0,.743-.065,3.451,3.451,0,0,0,.79-.246Q597.61,357.718,597.468,357.89Zm-2.9-.18a.093.093,0,0,0-.022-.016.1.1,0,0,0-.044.012,2.127,2.127,0,0,0-.311.241q-.143.134-.277.284a4.011,4.011,0,0,0-.321.416,1.207,1.207,0,0,0-.183.485.126.126,0,0,0,.04.1.129.129,0,0,0,.094.045.058.058,0,0,1,.027-.006c.033,0,.067-.01.1-.018a2.071,2.071,0,0,0,.481-.211,3.675,3.675,0,0,0,.43-.3q.1-.079.1-.133a.373.373,0,0,0-.088-.18,1.164,1.164,0,0,1-.13-.227.29.29,0,0,1,.006-.258c.021-.037.042-.072.064-.105a.653.653,0,0,1,.048-.083.027.027,0,0,0,0-.011.023.023,0,0,1,0-.011.023.023,0,0,0-.006-.016A.015.015,0,0,1,594.571,357.71Zm.7.19a.035.035,0,0,0-.017-.016.025.025,0,0,0-.017-.013l-.016,0a.791.791,0,0,0-.379.27.056.056,0,0,0,0,.025.139.139,0,0,0,0,.028.025.025,0,0,0,.014.019.191.191,0,0,0,.241-.01.743.743,0,0,0,.181-.288A.015.015,0,0,1,595.275,357.9Z" transform="translate(-559.137 -351.136)" fill="#4c5559"/>
      <path id="Path_593" data-name="Path 593" d="M612.441,357.046a8.157,8.157,0,0,1,1.537-.134,2.223,2.223,0,0,1,.39.061,1.072,1.072,0,0,1,.395.179.426.426,0,0,1,.178.339,7.95,7.95,0,0,0-1.538-.118,10.658,10.658,0,0,0-1.52.122,4.062,4.062,0,0,0-1.033.27c-.079.038-.159.079-.239.125l-.233.119a.206.206,0,0,1-.264-.089.432.432,0,0,1-.056-.382c.021-.077.045-.154.073-.231l.062-.187a.167.167,0,0,0-.011-.145q-.037-.051-.135-.028a2.018,2.018,0,0,0-.56.262,12.317,12.317,0,0,0-1.422,1.038q-.151.123-.308.235a.3.3,0,0,1-.043.028.133.133,0,0,1-.1.015.2.2,0,0,1-.1-.05.326.326,0,0,1-.056-.4c.064-.115.133-.227.208-.338q.583-.8,1.166-1.6a.485.485,0,0,1,.043-.055.133.133,0,0,1,.019-.03l.016-.02a.105.105,0,0,1,.024-.022.642.642,0,0,1,.053-.061.116.116,0,0,1,.109-.026.194.194,0,0,1,.163.254.559.559,0,0,1-.106.18.148.148,0,0,1-.027.039c-.075.107-.139.2-.192.266l-.123.172c-.043.059-.093.129-.15.211a1.273,1.273,0,0,0-.085.149.357.357,0,0,1-.021.039.025.025,0,0,0,0,.011.042.042,0,0,0,.008.011l.011.011a.067.067,0,0,0,.017.011c.008,0,.013,0,.016,0a1.307,1.307,0,0,0,.158-.079q.146-.1.292-.186l.3-.192a1.888,1.888,0,0,1,.478-.217.5.5,0,0,1,.381.035.525.525,0,0,1,.249.3.747.747,0,0,1,.036.333.936.936,0,0,1-.064.242.414.414,0,0,0-.023.091.029.029,0,0,0,.025.035.329.329,0,0,0,.079-.026c.042-.017.09-.039.144-.065.079-.034.149-.063.207-.086A8.589,8.589,0,0,1,612.441,357.046Z" transform="translate(-570.244 -350.115)" fill="#4c5559"/>
    </g>
    <path id="Path_594" data-name="Path 594" d="M537.194,459.985s0,1.543-2.621,1.543H444.434c-2.621,0-2.621-1.543-2.621-1.543h-.736v4.3h.736s0-1.543,2.621-1.543h90.139c2.621,0,2.621,1.543,2.621,1.543h.736v-4.3Z" transform="translate(-165.253 -162.957)" fill="#4c5559"/>
    <g id="Group_96" data-name="Group 96" transform="translate(228.676 250.536)">
      <path id="Exclusion_3" data-name="Exclusion 3" d="M3.894,16.933h0a.225.225,0,0,1-.107-.022.694.694,0,0,1-.218-.443,2.671,2.671,0,0,1-.06-.7c.015-.268.078-.437.177-.477a.258.258,0,0,1,.093-.013,3.794,3.794,0,0,1,1.35.462.553.553,0,0,1,.283-.06,1.761,1.761,0,0,1,.386.051,2.038,2.038,0,0,1,1.036-.548.316.316,0,0,1,.081.01c.18.048.327.742.29,1.176-.015.176-.064.389-.215.4H6.971a3.37,3.37,0,0,1-.852-.3,3.347,3.347,0,0,0-.359-.145,1.328,1.328,0,0,1-.316.044.409.409,0,0,1-.166-.027,2.886,2.886,0,0,0-.36.175A3.114,3.114,0,0,1,3.894,16.933Zm3.45-8.24h0c-.209,0-.422-.009-.633-.028A15.059,15.059,0,0,1,2.891,7.572a6.474,6.474,0,0,0-1.57-.5.3.3,0,0,0-.116.019A.413.413,0,0,0,.96,7.34a.781.781,0,0,0,.087.538A2.05,2.05,0,0,1,0,6.339a.572.572,0,0,1,.325-.492A.81.81,0,0,1,.7,5.754a2.942,2.942,0,0,1,1.39.64A7.958,7.958,0,0,0,4.508,7.563c.017-.055,1.683-5.644,1.73-6.607a.482.482,0,0,0-.133-.37A1.872,1.872,0,0,0,4.869.269a6.26,6.26,0,0,0-.833.059A4.742,4.742,0,0,1,5.922,0,9.565,9.565,0,0,1,7.654.17a5.282,5.282,0,0,1,1.76.766,2.575,2.575,0,0,1,.914.807c.024.144-.2.486-.491.919A10.482,10.482,0,0,0,9.07,3.946a21.943,21.943,0,0,0-.787,4.09h.046A2.3,2.3,0,0,0,9.89,7.429l.061-.05a.341.341,0,0,1,.205-.089.193.193,0,0,1,.172.117.334.334,0,0,1-.031.338,1.961,1.961,0,0,1-1.005.645A5.889,5.889,0,0,1,7.344,8.692Z" transform="translate(28.588 0)" fill="#4c5559"/>
      <path id="Path_597" data-name="Path 597" d="M242.291,481.065l-13.6,15.144a.344.344,0,0,0,.466.422L242.9,481.617l7.624-8.328a2.567,2.567,0,0,1-.335-1.019Z" transform="translate(-228.676 -423.053)" fill="#4c5559" fill-rule="evenodd"/>
      <path id="Path_598" data-name="Path 598" d="M395.035,339.738c-1.13.919-1.53-6.768-.191-16.635.154-1.137.666-3.405.768-3.854a.079.079,0,0,0-.062-.1l-1.892-.406a.08.08,0,0,1-.018-.151l1.267-.608s.067-.036.067-.054-.041-.022-.075-.038c-2.674-1.261-4.966-4.277-5.09-4.232-.026.01.06.107.162.317a28.46,28.46,0,0,1,2.432,9.541c.459,4.9.843,15.441,2.112,16.491.162.134.315.083.473-.043C395.166,339.832,395.392,339.448,395.035,339.738Z" transform="translate(-354.04 -299.652)" fill="#4c5559" fill-rule="evenodd"/>
      <path id="Path_599" data-name="Path 599" d="M333.951,332.135c-1.8-3.557-6.054-12.1-6.685-13.37a.141.141,0,0,1,.1-.2,27.861,27.861,0,0,1,3.54.025c.228.012.359.046.367.02s-.186-.1-.347-.16c-.858-.319-2.843-.8-3.323-.917-.068-.016-.084-.013-.088-.029s.042-.054.072-.083a9.313,9.313,0,0,0,2.16-2.681c.367-.7-.465.748-2.5,2.231a9.041,9.041,0,0,1-2.9,1.009,2.056,2.056,0,0,0-1.416,2.045c-.1.635-1.8,9.558-1.888,11.483-.081,1.738.369,12.271.457,14.293a.141.141,0,0,0,.241.093,4.525,4.525,0,0,1,3.874-1.046.14.14,0,0,1,.112.171c-.721,3.091-.773,10.382-.762,13.352a.143.143,0,0,0,.283.026c3.547-16.315,5.1-18.12,5.547-18.239a13.652,13.652,0,0,1,3.146.787c.992.272,1.432-.157,1.416-.944A15.15,15.15,0,0,0,333.951,332.135Zm-8.732,7.132a.143.143,0,0,1-.277-.038,40.358,40.358,0,0,1-.114-5.049c.148-1.1.686-3.715.879-4.695a.143.143,0,0,1,.264-.044,5.81,5.81,0,0,1,.587,2.851A28.268,28.268,0,0,1,325.22,339.267Z" transform="translate(-300.54 -300.347)" fill="#4c5559" fill-rule="evenodd"/>
    </g>
  </g>
</svg>
